<?xml version="1.0" ?><!DOCTYPE svg  PUBLIC '-//W3C//DTD SVG 1.1//EN'  'http://www.w3.org/Graphics/SVG/1.1/DTD/svg11.dtd'><svg enable-background="new 0 0 256 256" height="256px" id="Layer_1" version="1.1" viewBox="0 0 256 256" width="256px" xml:space="preserve" xmlns="http://www.w3.org/2000/svg" xmlns:xlink="http://www.w3.org/1999/xlink"><g id="Layer_2"><circle cx="128" cy="128" fill="#EFEDEE" r="128"/></g><g id="Layer_1_1_"><path d="M106.811,58.875v137.996c0,0.002,0,0.002,0,0.004c0,2.762,9.85,5,22,5c12.151,0,22-2.238,22-5l0,0v-138   H106.811z" fill="#4FBA6F"/><ellipse cx="128.811" cy="59.125" fill="#24AE5F" rx="22" ry="5"/><path d="M49.81,112.873v83.701c0,0.002,0,0.002,0,0.004c0,2.762,9.85,5,22,5c12.151,0,22-2.238,22-5v-83.705H49.81z   " fill="#3B97D3"/><ellipse cx="71.81" cy="112.873" fill="#2980BA" rx="22" ry="5"/><path d="M163.812,78.2v118.378c0,2.762,9.85,5,22,5s22-2.238,22-5V78.2H163.812z" fill="#E64C3C"/><ellipse cx="185.812" cy="78.2" fill="#C03A2B" rx="22" ry="5"/></g></svg>