<svg width="185" height="39" viewBox="0 0 185 39" fill="none" xmlns="http://www.w3.org/2000/svg">
<path d="M41.5286 16.3992H53.2196V19.4361H45.0937V22.3131H51.9991V25.0943H45.0937V31.0082H41.5286V16.3992ZM54.0868 23.7197C54.0868 19.532 57.0417 16.0795 61.9236 16.0795C66.8377 16.0795 69.8247 19.532 69.8247 23.7197C69.8247 27.9074 66.8698 31.3598 61.9236 31.3598C57.0417 31.3598 54.0868 27.9074 54.0868 23.7197ZM66.1311 23.7197C66.1311 21.1943 64.3003 19.5 61.9236 19.5C59.579 19.5 57.7483 21.1943 57.7483 23.7197C57.7483 26.2451 59.579 27.9393 61.9236 27.9393C64.3003 27.9393 66.1311 26.2451 66.1311 23.7197ZM72.2977 16.3992H79.2352C82.9609 16.3992 85.3377 18.3172 85.3377 21.5139C85.3377 23.5598 84.4062 25.0303 82.8967 25.8934V26.2131L86.2049 30.8164V31.0721H82.158L79.2674 26.7885H75.8628V31.0721H72.2977V16.3992ZM79.0747 19.4361H75.8307V23.8156H79.1068C80.7448 23.8156 81.6441 23.0803 81.6441 21.6098C81.6762 20.2352 80.7448 19.4361 79.0747 19.4361ZM94.9731 22.3451H102.392V23.9754C102.392 28.259 100.048 31.3598 95.3585 31.3598C90.4444 31.3598 87.4896 27.9074 87.4896 23.7197C87.4896 19.532 90.4444 16.0795 95.3585 16.0795C99.2448 16.0795 100.915 17.9016 100.915 17.9016L98.7951 20.5869C98.7951 20.5869 97.3819 19.468 95.3264 19.468C92.9496 19.468 91.1832 21.1623 91.1832 23.7197C91.1832 26.2451 92.9496 27.9713 95.3264 27.9713C97.4462 27.9713 98.5382 26.6926 98.6024 25.2541V25.0943H95.0373V22.3451H94.9731ZM115.015 25.1262H108.559V28.0033H116.685V31.0402H104.994V16.3992H116.685V19.4361H108.559V22.3131H115.047V25.1262H115.015ZM119.608 16.3992H126.545C130.271 16.3992 132.648 18.3172 132.648 21.5139C132.648 23.5598 131.716 25.0303 130.207 25.8934V26.2131L133.515 30.8164V31.0721H129.468L126.577 26.7885H123.173V31.0721H119.608V16.3992ZM126.385 19.4361H123.141V23.8156H126.417C128.055 23.8156 128.954 23.0803 128.954 21.6098C128.954 20.2352 128.023 19.4361 126.385 19.4361ZM134.607 23.7197C134.607 19.532 137.562 16.0795 142.444 16.0795C147.358 16.0795 150.345 19.532 150.345 23.7197C150.345 27.9074 147.39 31.3598 142.444 31.3598C137.562 31.3598 134.607 27.9074 134.607 23.7197ZM146.683 23.7197C146.683 21.1943 144.852 19.5 142.476 19.5C140.131 19.5 138.3 21.1943 138.3 23.7197C138.3 26.2451 140.131 27.9393 142.476 27.9393C144.82 27.9393 146.683 26.2451 146.683 23.7197ZM165.408 29.5697C165.408 29.5697 163.77 31.3598 160.173 31.3598C155.259 31.3598 152.272 27.9074 152.272 23.7197C152.272 19.532 155.227 16.0795 160.173 16.0795C163.802 16.0795 165.408 17.8697 165.408 17.8697L163.385 20.5869C163.385 20.5869 161.875 19.5 160.237 19.5C157.732 19.5 155.965 21.1943 155.965 23.7516C155.965 26.2771 157.732 28.0033 160.237 28.0033C162.325 28.0033 163.385 26.9164 163.385 26.9164L165.408 29.5697ZM170.836 22.6967L176.842 16.3992H181.178V16.7189L175.525 22.6967L181.178 30.6885V31.0402H176.874C175.589 29.1221 174.337 27.2041 173.052 25.2861L170.836 27.6197V31.0402H167.271V16.3992H170.836V22.6967ZM183.747 16.1754C183.972 16.1754 184.165 16.2393 184.358 16.3352C184.55 16.4311 184.711 16.591 184.839 16.8148C184.968 17.0066 185 17.2303 185 17.4541C185 17.6779 184.936 17.8697 184.839 18.0934C184.743 18.3172 184.582 18.4451 184.358 18.573C184.165 18.6689 183.94 18.7328 183.715 18.7328C183.49 18.7328 183.298 18.6689 183.073 18.573C182.88 18.477 182.72 18.3172 182.591 18.0934C182.463 17.8697 182.431 17.6779 182.431 17.4541C182.431 17.2303 182.495 17.0385 182.591 16.8148C182.688 16.591 182.848 16.4631 183.073 16.3352C183.298 16.2393 183.523 16.1754 183.747 16.1754ZM183.747 16.4311C183.587 16.4311 183.394 16.4631 183.234 16.559C183.073 16.6549 182.944 16.7828 182.848 16.9426C182.752 17.1025 182.72 17.2623 182.72 17.4541C182.72 17.6459 182.752 17.8057 182.848 17.9656C182.944 18.1254 183.073 18.2533 183.234 18.3492C183.394 18.4451 183.555 18.477 183.747 18.477C183.94 18.477 184.101 18.4451 184.261 18.3492C184.422 18.2533 184.55 18.1254 184.647 17.9656C184.743 17.8057 184.775 17.6459 184.775 17.4541C184.775 17.2623 184.743 17.1025 184.647 16.9426C184.55 16.7828 184.422 16.6549 184.261 16.559C184.069 16.4631 183.908 16.4311 183.747 16.4311ZM183.169 18.1254V16.7828H183.844C183.94 16.7828 184.004 16.8148 184.069 16.8467C184.133 16.8787 184.165 16.9107 184.197 16.9746C184.229 17.0385 184.261 17.1025 184.261 17.1664C184.261 17.2623 184.229 17.3582 184.165 17.4221C184.101 17.4861 184.004 17.518 183.908 17.55C183.94 17.55 183.972 17.582 184.004 17.6139L184.101 17.7098C184.101 17.7098 184.133 17.7738 184.197 17.8697L184.358 18.1254H184.036L183.94 17.9016C183.876 17.7418 183.812 17.6779 183.747 17.6139C183.683 17.582 183.651 17.55 183.555 17.55H183.49V18.0934H183.169V18.1254ZM183.426 17.3582H183.523C183.683 17.3582 183.78 17.3582 183.812 17.3262C183.844 17.3262 183.876 17.2943 183.908 17.2623C183.94 17.2303 183.94 17.1984 183.94 17.1664C183.94 17.1344 183.94 17.1025 183.908 17.0705C183.876 17.0385 183.844 17.0066 183.812 17.0066C183.78 17.0066 183.683 16.9746 183.523 16.9746H183.426V17.3582ZM23.5747 3.35656L11.98 23.6238L15.7378 30.241L27.3003 9.90984L23.5747 3.35656ZM29.2917 13.3943L17.7292 33.6934L20.7161 39H26.401L35.1372 23.6877L29.2917 13.3943ZM10.4705 3.67623L0.0321181 21.9934H9.08941L21.6476 0L10.4705 3.67623ZM16.7977 39L9.02517 25.4139L0 25.382L7.74045 39H16.7977Z" fill="#23282E"/>
</svg>
