<?xml version="1.0" standalone="no"?>
<!DOCTYPE svg PUBLIC "-//W3C//DTD SVG 20010904//EN"
 "http://www.w3.org/TR/2001/REC-SVG-20010904/DTD/svg10.dtd">
<svg version="1.0" xmlns="http://www.w3.org/2000/svg"
 width="720.000000pt" height="720.000000pt" viewBox="0 0 720.000000 720.000000"
 preserveAspectRatio="xMidYMid meet">
<metadata>
Created by potrace 1.11, written by Peter Selinger 2001-2013
</metadata>
<g transform="translate(0.000000,720.000000) scale(0.100000,-0.100000)"
fill="#000000" stroke="none">
<path d="M4250 7169 c-47 -16 -92 -31 -100 -33 -20 -5 -627 -204 -662 -218
-15 -5 -30 -10 -32 -9 -3 0 -22 -7 -43 -15 -20 -9 -44 -17 -52 -19 -22 -5
-602 -194 -626 -205 -19 -8 -149 -51 -170 -56 -5 -2 -64 -21 -130 -42 -133
-44 -131 -42 -207 -182 -20 -36 -52 -94 -72 -128 -20 -35 -36 -68 -36 -73 0
-5 -3 -9 -7 -9 -5 0 -13 -10 -19 -23 -15 -33 -58 -111 -64 -117 -3 -3 -10 -14
-16 -25 -31 -57 -240 -424 -256 -450 -10 -16 -21 -37 -25 -45 -4 -8 -20 -37
-36 -65 -37 -63 -52 -88 -145 -255 -41 -74 -78 -137 -81 -140 -3 -3 -14 -21
-23 -40 -9 -19 -24 -46 -32 -60 -22 -36 -231 -404 -239 -421 -4 -8 -21 -36
-37 -64 -17 -27 -38 -66 -48 -85 -9 -19 -19 -37 -23 -40 -3 -3 -30 -50 -61
-105 -30 -55 -64 -116 -75 -135 -31 -54 -100 -175 -123 -214 -11 -20 -28 -51
-39 -68 -68 -119 -91 -161 -91 -169 0 -5 -4 -9 -10 -9 -5 0 -10 -4 -10 -9 0
-5 -34 -69 -76 -142 -42 -74 -83 -146 -91 -162 -8 -15 -30 -53 -49 -84 -19
-31 -34 -59 -34 -62 0 -4 371 -6 824 -6 l824 0 19 35 c10 19 54 98 99 175 44
77 94 165 111 195 17 30 66 116 108 190 43 74 86 152 96 172 11 20 23 40 29
43 6 4 8 11 5 16 -4 5 -3 9 2 9 4 0 14 15 22 33 8 17 17 34 21 37 4 3 26 41
50 85 24 44 51 91 60 105 9 14 23 40 31 58 8 17 17 32 21 32 5 0 8 5 8 10 0 6
16 35 35 65 19 30 32 55 28 55 -3 0 1 8 9 18 8 9 30 44 48 77 18 33 43 78 55
100 36 65 215 379 225 395 11 17 65 113 105 185 15 28 36 62 46 77 11 14 19
28 19 31 0 2 30 56 66 118 36 63 70 123 75 134 5 11 18 34 28 50 23 38 218
378 243 425 11 19 25 44 31 55 7 11 32 56 56 100 25 44 48 82 53 83 4 2 8 7 8
12 0 5 28 57 62 117 33 59 72 128 86 153 14 25 33 57 43 72 11 14 19 29 19 32
0 4 50 93 110 198 61 105 110 195 110 200 0 4 4 8 8 8 4 0 13 14 19 30 6 17
11 30 10 29 -1 0 -40 -14 -87 -30z"/>
<path d="M4672 6553 c-11 -27 -52 -103 -62 -113 -3 -3 -10 -14 -16 -25 -54
-100 -78 -141 -84 -150 -4 -5 -24 -41 -45 -80 -21 -38 -44 -77 -51 -86 -8 -8
-14 -18 -14 -21 0 -6 -89 -166 -110 -198 -5 -8 -23 -40 -40 -70 -16 -30 -40
-73 -53 -95 -13 -22 -39 -67 -57 -100 -18 -33 -38 -67 -44 -75 -7 -8 -18 -28
-26 -45 -8 -16 -17 -32 -20 -35 -3 -3 -15 -23 -27 -45 -11 -22 -30 -56 -41
-75 -11 -19 -41 -73 -67 -120 -26 -47 -55 -93 -63 -102 -8 -10 -12 -18 -9 -18
5 0 -43 -85 -73 -130 -6 -8 -18 -31 -29 -50 -49 -93 -126 -225 -133 -228 -4
-2 -8 -8 -8 -13 0 -5 -31 -62 -68 -127 -38 -65 -72 -125 -76 -133 -4 -8 -12
-23 -19 -34 -12 -19 -95 -165 -143 -250 -12 -22 -62 -110 -111 -195 -49 -85
-92 -162 -96 -170 -4 -8 -13 -24 -20 -35 -54 -90 -107 -186 -107 -194 0 -5 -4
-11 -8 -13 -8 -3 -24 -30 -98 -168 -10 -19 -22 -36 -26 -38 -5 -2 -8 -7 -8
-12 0 -4 -30 -59 -66 -121 -36 -63 -82 -143 -101 -179 -20 -36 -44 -77 -54
-91 -21 -29 -22 -27 81 -205 28 -48 50 -91 50 -95 0 -5 5 -9 11 -9 5 0 8 -4 5
-9 -3 -5 1 -14 9 -21 8 -7 15 -19 15 -26 0 -8 5 -14 10 -14 6 0 10 -6 10 -12
0 -7 22 -50 49 -94 27 -45 52 -91 56 -103 3 -12 11 -21 17 -21 6 0 8 -3 5 -6
-4 -4 3 -19 13 -35 11 -15 33 -51 49 -81 16 -29 57 -102 91 -163 34 -60 76
-135 93 -165 17 -30 40 -71 51 -90 12 -19 28 -47 35 -62 13 -25 15 -26 26 -10
12 16 120 206 173 302 14 25 28 50 32 55 4 6 21 35 38 65 16 30 41 75 56 100
15 25 33 59 42 75 8 17 23 44 34 60 11 17 29 48 40 70 11 22 34 63 51 90 16
28 34 59 39 70 6 11 24 43 41 70 16 28 33 58 36 68 3 9 8 17 12 17 3 0 12 15
20 33 8 17 24 48 36 67 12 19 37 62 55 95 18 33 42 76 53 95 10 19 34 60 53
91 19 31 34 62 34 68 0 6 5 11 10 11 6 0 10 5 10 11 0 6 26 56 59 112 84 147
204 357 311 547 51 91 102 181 113 200 11 19 31 55 45 80 14 25 49 86 78 137
30 50 54 96 54 102 0 6 5 11 10 11 6 0 10 4 10 10 0 5 19 42 43 82 23 40 48
84 55 98 6 14 16 32 22 40 5 8 59 103 120 210 61 107 114 202 119 210 6 8 22
38 37 65 14 28 32 57 38 65 7 8 18 29 26 45 8 17 31 57 50 90 19 33 36 66 37
72 1 6 -56 113 -127 238 -72 125 -130 231 -130 236 0 5 -5 9 -11 9 -5 0 -8 4
-4 9 3 5 1 12 -4 15 -5 4 -40 61 -78 129 -37 67 -72 130 -78 139 -12 20 -32
56 -75 133 -19 33 -42 74 -52 90 -10 17 -25 44 -33 60 -34 65 -74 130 -83 133
-5 1 -15 -10 -20 -25z"/>
<path d="M5717 4723 c-6 -16 -15 -30 -19 -33 -4 -3 -12 -17 -17 -30 -6 -14
-20 -38 -30 -55 -48 -79 -72 -122 -82 -147 -6 -16 -15 -28 -20 -28 -5 0 -8 -3
-7 -7 1 -5 -5 -19 -13 -33 -9 -14 -36 -61 -61 -105 -25 -44 -56 -98 -68 -120
-13 -22 -34 -60 -48 -85 -14 -25 -34 -58 -44 -75 -10 -16 -21 -37 -25 -45 -4
-8 -26 -48 -50 -88 -24 -41 -43 -75 -43 -76 0 -2 -38 -69 -85 -150 -47 -81
-85 -149 -85 -150 0 -2 -44 -79 -97 -172 -54 -93 -105 -183 -113 -199 -8 -17
-19 -37 -26 -45 -6 -8 -28 -46 -49 -85 -21 -38 -41 -74 -45 -80 -4 -5 -23 -37
-41 -70 -18 -33 -42 -76 -53 -96 -12 -21 -37 -66 -57 -100 -20 -35 -46 -82
-59 -104 -13 -22 -33 -59 -46 -81 -13 -23 -67 -118 -120 -210 -53 -93 -104
-183 -113 -199 -9 -17 -63 -112 -121 -213 -58 -100 -111 -195 -119 -210 -8
-15 -18 -30 -23 -33 -6 -3 -10 -9 -10 -12 0 -19 -12 -47 -19 -47 -5 0 -9 -4
-9 -8 0 -5 -31 -63 -70 -131 -38 -67 -70 -126 -70 -131 0 -6 -4 -10 -10 -10
-5 0 -10 -5 -10 -10 0 -6 -17 -38 -38 -73 -73 -122 -78 -134 -61 -154 8 -10
24 -36 36 -58 11 -22 30 -56 42 -75 11 -19 28 -51 38 -70 9 -19 19 -37 22 -40
4 -3 11 -14 17 -25 6 -11 30 -56 54 -100 24 -44 51 -92 61 -107 11 -14 19 -28
19 -31 0 -11 224 -402 234 -409 6 -4 7 -8 2 -8 -6 0 -5 -5 1 -11 6 -6 43 -10
84 -9 41 1 81 1 89 1 8 0 35 0 60 0 25 0 56 0 70 0 64 -1 138 -1 165 0 28 1
60 0 125 -2 28 -2 85 1 115 5 11 1 32 -1 47 -5 15 -4 30 -4 33 1 3 4 20 5 37
1 18 -4 42 -6 53 -5 25 3 65 5 85 4 8 -1 30 0 47 1 33 2 46 18 103 124 9 17
40 70 68 119 29 49 52 90 52 91 0 1 23 42 52 91 28 49 60 107 72 129 12 22 24
42 29 43 4 2 7 7 7 12 0 4 31 61 68 127 37 65 71 125 75 133 4 8 11 22 17 30
25 37 140 243 140 251 0 5 4 9 8 9 4 0 13 12 19 28 12 28 54 103 63 112 3 3
12 19 21 35 37 68 79 144 115 205 20 36 47 83 58 105 11 22 23 42 26 45 3 3
31 50 62 105 30 55 65 116 77 135 11 19 24 42 28 50 4 8 19 35 33 61 34 57 75
129 113 199 16 30 33 60 37 65 4 6 19 30 32 55 14 25 76 133 137 240 l112 195
-21 35 c-12 19 -24 43 -27 53 -3 9 -9 17 -14 17 -5 0 -9 5 -9 11 0 6 -19 43
-42 82 -23 40 -50 88 -60 107 -10 19 -27 49 -37 65 -18 30 -43 74 -114 200
-21 39 -56 99 -76 134 -20 35 -48 84 -62 110 -32 58 -62 111 -159 281 -42 74
-88 155 -102 180 -14 25 -54 95 -88 155 -34 61 -76 135 -93 165 -17 30 -41 72
-54 92 -13 21 -23 40 -23 42 0 8 -82 146 -86 146 -2 0 -10 -12 -17 -27z"/>
<path d="M415 2541 c7 -15 63 -113 124 -220 61 -106 111 -195 111 -197 0 -2
18 -33 40 -69 22 -36 40 -67 40 -70 0 -4 75 -136 100 -175 5 -8 23 -42 41 -75
17 -33 38 -67 45 -76 8 -8 14 -19 14 -24 0 -4 26 -54 59 -109 32 -56 68 -118
80 -138 11 -21 30 -55 42 -75 33 -60 233 -411 341 -601 54 -95 98 -177 98
-182 0 -6 4 -10 8 -10 4 0 13 -12 19 -27 7 -16 17 -35 22 -43 12 -16 51 -85
102 -176 18 -33 41 -75 52 -94 11 -19 27 -48 37 -65 10 -19 26 -31 41 -32 37
-4 131 -4 159 0 14 2 37 0 52 -4 15 -4 30 -4 33 1 3 4 20 5 37 1 18 -4 44 -5
58 -4 14 2 50 3 80 3 30 -1 62 0 70 0 8 0 26 0 40 -1 14 -1 35 -1 48 0 28 1
114 1 150 0 35 -1 128 0 172 2 19 1 41 1 48 0 6 -1 18 -1 25 -2 16 -1 122 0
167 2 19 1 42 1 50 0 8 0 35 0 60 0 25 0 52 1 60 0 8 0 38 0 65 0 47 1 56 0
88 -2 6 0 47 0 90 1 l77 2 -18 32 c-11 17 -28 47 -38 66 -10 19 -21 37 -24 40
-6 6 -50 86 -65 117 -5 13 -13 23 -17 23 -5 0 -8 4 -8 9 0 8 -129 238 -168
301 -9 14 -14 25 -11 25 2 0 -6 14 -19 32 -12 17 -22 36 -22 42 0 6 -4 11 -10
11 -5 0 -10 6 -10 14 0 8 -7 22 -16 30 -8 9 -13 16 -9 16 4 0 -3 12 -14 26
-12 15 -21 33 -21 40 0 8 -4 14 -10 14 -5 0 -10 4 -10 9 0 5 -96 178 -213 383
-118 205 -225 393 -239 418 -14 25 -69 122 -123 215 -53 94 -107 188 -120 210
-12 22 -32 57 -44 78 -11 20 -30 54 -42 75 -12 20 -25 42 -29 47 -7 10 -61
108 -87 156 -24 48 -26 48 -185 52 -49 1 -84 -2 -81 -7 4 -5 0 -6 -7 -1 -7 4
-324 9 -706 9 l-692 2 13 -25z"/>
</g>
</svg>
